<svg width="28" height="28" viewBox="0 0 28 28" fill="none" xmlns="http://www.w3.org/2000/svg">
<path fill-rule="evenodd" clip-rule="evenodd" d="M3.5 10.5H24.5V19.8333C24.5 22.4107 22.4107 24.5 19.8333 24.5H8.16667C5.58934 24.5 3.5 22.4107 3.5 19.8333V10.5ZM5.83333 12.8333V19.8333C5.83333 21.122 6.878 22.1667 8.16667 22.1667H19.8333C21.122 22.1667 22.1667 21.122 22.1667 19.8333V12.8333H5.83333Z" fill="currentColor"/>
<path fill-rule="evenodd" clip-rule="evenodd" d="M3.5 5.83325H24.5V10.4999H3.5V5.83325ZM5.83333 7.38881V8.94436H22.1667V7.38881H5.83333Z" fill="currentColor"/>
<path fill-rule="evenodd" clip-rule="evenodd" d="M8.16671 2.33325C8.81104 2.33325 9.33337 2.85559 9.33337 3.49992V8.16658C9.33337 8.81092 8.81104 9.33325 8.16671 9.33325C7.52238 9.33325 7.00004 8.81092 7.00004 8.16658V3.49992C7.00004 2.85559 7.52238 2.33325 8.16671 2.33325Z" fill="currentColor"/>
<path fill-rule="evenodd" clip-rule="evenodd" d="M19.8333 2.33325C20.4777 2.33325 21 2.85559 21 3.49992V8.16658C21 8.81092 20.4777 9.33325 19.8333 9.33325C19.189 9.33325 18.6667 8.81092 18.6667 8.16658V3.49992C18.6667 2.85559 19.189 2.33325 19.8333 2.33325Z" fill="currentColor"/>
<rect x="5.83337" y="7" width="17.5" height="3.5" fill="currentColor"/>
</svg>
