<svg width="20" height="20" viewBox="0 0 20 20" fill="none" xmlns="http://www.w3.org/2000/svg">
<g id="icon-bell-fill">
<path id="Union" fill-rule="evenodd" clip-rule="evenodd" d="M11.9688 3.13979C11.8721 2.31342 11.1646 1.66669 10.3134 1.66669C9.4632 1.66669 8.75636 2.30472 8.65835 3.1353C5.78034 3.87256 3.6467 6.48609 3.6467 9.60004V11.9C3.6467 12.0334 3.61337 12.1584 3.55504 12.275L2.58837 14.225C2.31337 14.775 2.71337 15.4334 3.33004 15.4334L7.81342 15.4334C7.81342 16.8167 8.93008 17.9334 10.3134 17.9334C11.6967 17.9334 12.8134 16.8167 12.8134 15.4334L17.2967 15.4334C17.9134 15.4334 18.3217 14.7834 18.0384 14.225L17.0634 12.275C17.005 12.1584 16.9717 12.0334 16.9717 11.9H16.98V9.82504C16.98 6.69354 14.8921 3.9122 11.9688 3.13979Z" fill="#B7B7B7"/>
</g>
</svg>
