<svg width="48" height="48" viewBox="0 0 48 48" fill="none" xmlns="http://www.w3.org/2000/svg">
<g clip-path="url(#clip0_5574_48)">
<path d="M47.5 24C47.5 36.9791 36.9791 47.5 24 47.5C11.0209 47.5 0.5 36.9791 0.5 24C0.5 11.0209 11.0209 0.5 24 0.5C36.9791 0.5 47.5 11.0209 47.5 24Z" fill="#FEC4B2" stroke="#FEC4B2"/>
<path fill-rule="evenodd" clip-rule="evenodd" d="M14.6665 16.8133C14.6665 16.169 15.1888 15.6467 15.8332 15.6467H33.2398C33.8842 15.6467 34.4065 16.169 34.4065 16.8133C34.4065 17.4577 33.8842 17.98 33.2398 17.98H15.8332C15.1888 17.98 14.6665 17.4577 14.6665 16.8133Z" fill="#DC5A31"/>
<path d="M30.6029 35.4684H18.4813C17.1979 35.4684 16.1479 34.4184 16.1479 33.135V16.3234H32.9363V33.1467C32.9363 34.43 31.8863 35.48 30.6029 35.48V35.4684Z" fill="#DC5A31"/>
<path d="M19.5669 15.985L20.4652 14.1883C20.6752 13.7683 21.1069 13.5 21.5736 13.5H27.5002C27.9669 13.5 28.3986 13.7683 28.6086 14.1883L29.5069 15.985H19.5669Z" fill="#DC5A31"/>
<path fill-rule="evenodd" clip-rule="evenodd" d="M21.4684 19.9984C22.1128 19.9984 22.6351 20.5207 22.6351 21.165V29.88C22.6351 30.5244 22.1128 31.0467 21.4684 31.0467C20.8241 31.0467 20.3018 30.5244 20.3018 29.88V21.165C20.3018 20.5207 20.8241 19.9984 21.4684 19.9984Z" fill="#FEC4B2"/>
<path fill-rule="evenodd" clip-rule="evenodd" d="M27.6051 19.9984C28.2495 19.9984 28.7718 20.5207 28.7718 21.165V29.88C28.7718 30.5244 28.2495 31.0467 27.6051 31.0467C26.9608 31.0467 26.4385 30.5244 26.4385 29.88V21.165C26.4385 20.5207 26.9608 19.9984 27.6051 19.9984Z" fill="#FEC4B2"/>
</g>
<defs>
<clipPath id="clip0_5574_48">
<rect width="48" height="48" fill="white"/>
</clipPath>
</defs>
</svg>
