<svg width="28" height="28" viewBox="0 0 28 28" fill="none" xmlns="http://www.w3.org/2000/svg">
<path d="M23.2398 7.98012H5.83317C5.1915 7.98012 4.6665 7.45512 4.6665 6.81346C4.6665 6.17179 5.1915 5.64679 5.83317 5.64679H23.2398C23.8815 5.64679 24.4065 6.17179 24.4065 6.81346C24.4065 7.45512 23.8815 7.98012 23.2398 7.98012Z" fill="#333333"/>
<path d="M20.6029 7.91015V23.1468H8.48128V7.91015H20.6029ZM22.9363 6.32349H6.14795V23.2285C6.14795 24.4652 7.19795 25.4685 8.48128 25.4685H20.6029C21.8863 25.4685 22.9363 24.4652 22.9363 23.2285V6.32349Z" fill="#333333"/>
<path d="M9.56641 5.985L10.4647 4.18833C10.6747 3.76833 11.1064 3.5 11.5731 3.5H17.4997C17.9664 3.5 18.3981 3.76833 18.6081 4.18833L19.5064 5.985H9.56641Z" fill="#333333"/>
<path fill-rule="evenodd" clip-rule="evenodd" d="M12.0514 9.99841C12.6958 9.99841 13.2181 10.5207 13.2181 11.1651V19.8801C13.2181 20.5244 12.6958 21.0467 12.0514 21.0467C11.4071 21.0467 10.8848 20.5244 10.8848 19.8801V11.1651C10.8848 10.5207 11.4071 9.99841 12.0514 9.99841Z" fill="#333333"/>
<path fill-rule="evenodd" clip-rule="evenodd" d="M17.0216 9.99841C17.666 9.99841 18.1883 10.5207 18.1883 11.1651V19.8801C18.1883 20.5244 17.666 21.0467 17.0216 21.0467C16.3773 21.0467 15.855 20.5244 15.855 19.8801V11.1651C15.855 10.5207 16.3773 9.99841 17.0216 9.99841Z" fill="#333333"/>
</svg>
